# xmcd CD database file
#
# Track frame offsets:
#	150
#	19716
#	28257
#	41736
#	57922
#	70600
#	86368
#	100865
#	118172
#	130247
#	149739
#	168627
#	180835
#	191448
#	202695
#	216098
#
# Disc length: 3057 seconds
#
# Revision: 0
# Processed by: cddbd v1.5.2PL0 Copyright (c) Steve Scherf et al.
# Submitted via: CDex 1.70beta2
#
DISCID=de0bef10
DTITLE=Pino Daniele - Ricomincio Da 30 CD 2
DYEAR=2008
DGENRE=Blues
TTITLE0=Sicily (special guest Chick Corea)
TTITLE1=Appocundria (special guest Al Di Meola)
TTITLE2=Resta Resta Cu Mmè
TTITLE3='Na Tazzulella 'E Caffè
TTITLE4=Alleria
TTITLE5=Donna Cuncetta
TTITLE6=Un Cielo Senza Nuvole
TTITLE7=Chi Tene 'O Mare
TTITLE8=Viento (special guest Al Di Meola)
TTITLE9=Je Sto vicino A Te
TTITLE10=L'Ironia Di Sempre (special guest Chiara Civello)
TTITLE11=Acqua 'E Rose (special guest Al Di Meola)
TTITLE12=Terra Mia
TTITLE13=Maggio Se Ne Va (special guest Wayne Shorter)
TTITLE14=Lazzari Felici
TTITLE15='O Munn Va
EXTD=YEAR: 2008
EXTT0=
EXTT1=
EXTT2=
EXTT3=
EXTT4=
EXTT5=
EXTT6=
EXTT7=
EXTT8=
EXTT9=
EXTT10=
EXTT11=
EXTT12=
EXTT13=
EXTT14=
EXTT15=
PLAYORDER=
